<svg xmlns="http://www.w3.org/2000/svg" width="48" height="48" viewBox="0 0 48 48">
<rect x="18" y="5" width="1" height="1" fill="#0e080b" fill-opacity="0.988" />
<rect x="19" y="5" width="1" height="1" fill="#1f1216" fill-opacity="0.996" />
<rect x="20" y="5" width="1" height="1" fill="#1e1117" />
<rect x="21" y="5" width="1" height="1" fill="#1f1216" />
<rect x="22" y="5" width="1" height="1" fill="#201318" />
<rect x="23" y="5" width="1" height="1" fill="#1f1317" />
<rect x="24" y="5" width="1" height="1" fill="#201117" />
<rect x="25" y="5" width="1" height="1" fill="#1f1316" />
<rect x="26" y="5" width="1" height="1" fill="#201117" />
<rect x="27" y="5" width="1" height="1" fill="#201217" />
<rect x="17" y="6" width="1" height="1" fill="#1e1316" />
<rect x="18" y="6" width="1" height="1" fill="#352229" />
<rect x="19" y="6" width="1" height="1" fill="#322026" />
<rect x="20" y="6" width="1" height="1" fill="#302127" />
<rect x="21" y="6" width="1" height="1" fill="#311f26" />
<rect x="22" y="6" width="1" height="1" fill="#321f26" />
<rect x="23" y="6" width="1" height="1" fill="#322126" />
<rect x="24" y="6" width="1" height="1" fill="#312125" />
<rect x="25" y="6" width="1" height="1" fill="#311f25" />
<rect x="26" y="6" width="1" height="1" fill="#302226" />
<rect x="27" y="6" width="1" height="1" fill="#311e26" />
<rect x="28" y="6" width="1" height="1" fill="#1f1217" />
<rect x="29" y="6" width="1" height="1" fill="#201117" />
<rect x="16" y="7" width="1" height="1" fill="#1f1116" />
<rect x="17" y="7" width="1" height="1" fill="#312027" />
<rect x="18" y="7" width="1" height="1" fill="#312125" />
<rect x="19" y="7" width="1" height="1" fill="#312028" />
<rect x="20" y="7" width="1" height="1" fill="#322024" />
<rect x="21" y="7" width="1" height="1" fill="#301f26" />
<rect x="22" y="7" width="1" height="1" fill="#312027" />
<rect x="23" y="7" width="1" height="1" fill="#321e26" />
<rect x="24" y="7" width="1" height="1" fill="#311e25" />
<rect x="25" y="7" width="1" height="1" fill="#311f26" />
<rect x="26" y="7" width="1" height="1" fill="#312025" />
<rect x="27" y="7" width="1" height="1" fill="#302025" />
<rect x="28" y="7" width="1" height="1" fill="#311f25" />
<rect x="29" y="7" width="1" height="1" fill="#1e1015" />
<rect x="15" y="8" width="1" height="1" fill="#201216" />
<rect x="16" y="8" width="1" height="1" fill="#312125" />
<rect x="17" y="8" width="1" height="1" fill="#322028" />
<rect x="18" y="8" width="1" height="1" fill="#312026" />
<rect x="19" y="8" width="1" height="1" fill="#322227" />
<rect x="20" y="8" width="1" height="1" fill="#322125" />
<rect x="21" y="8" width="1" height="1" fill="#150a0f" />
<rect x="22" y="8" width="1" height="1" fill="#201115" />
<rect x="23" y="8" width="1" height="1" fill="#201216" />
<rect x="24" y="8" width="1" height="1" fill="#1e1116" />
<rect x="25" y="8" width="1" height="1" fill="#1e1016" />
<rect x="26" y="8" width="1" height="1" fill="#312025" />
<rect x="27" y="8" width="1" height="1" fill="#342027" />
<rect x="28" y="8" width="1" height="1" fill="#1f1217" fill-opacity="0.996" />
<rect x="29" y="8" width="1" height="1" fill="#1e1217" />
<rect x="15" y="9" width="1" height="1" fill="#201216" />
<rect x="16" y="9" width="1" height="1" fill="#312026" />
<rect x="17" y="9" width="1" height="1" fill="#322227" />
<rect x="18" y="9" width="1" height="1" fill="#332127" />
<rect x="19" y="9" width="1" height="1" fill="#321f25" />
<rect x="20" y="9" width="1" height="1" fill="#1f1017" />
<rect x="21" y="9" width="1" height="1" fill="#c45e46" />
<rect x="22" y="9" width="1" height="1" fill="#874433" />
<rect x="23" y="9" width="1" height="1" fill="#854432" />
<rect x="24" y="9" width="1" height="1" fill="#864432" />
<rect x="25" y="9" width="1" height="1" fill="#854335" />
<rect x="26" y="9" width="1" height="1" fill="#1f1214" />
<rect x="27" y="9" width="1" height="1" fill="#201216" />
<rect x="28" y="9" width="1" height="1" fill="#814031" />
<rect x="29" y="9" width="1" height="1" fill="#201217" />
<rect x="15" y="10" width="1" height="1" fill="#1e1316" />
<rect x="16" y="10" width="1" height="1" fill="#312126" />
<rect x="17" y="10" width="1" height="1" fill="#352028" />
<rect x="18" y="10" width="1" height="1" fill="#342025" />
<rect x="19" y="10" width="1" height="1" fill="#1e1216" />
<rect x="20" y="10" width="1" height="1" fill="#09060f" />
<rect x="21" y="10" width="1" height="1" fill="#c86a4a" fill-opacity="0.996" />
<rect x="22" y="10" width="1" height="1" fill="#b96d4c" fill-opacity="0.996" />
<rect x="23" y="10" width="1" height="1" fill="#ae6246" />
<rect x="24" y="10" width="1" height="1" fill="#ad6447" fill-opacity="0.996" />
<rect x="25" y="10" width="1" height="1" fill="#ac6347" fill-opacity="0.996" />
<rect x="26" y="10" width="1" height="1" fill="#ad6448" />
<rect x="27" y="10" width="1" height="1" fill="#ae6448" fill-opacity="0.996" />
<rect x="28" y="10" width="1" height="1" fill="#ab6449" />
<rect x="29" y="10" width="1" height="1" fill="#200f17" />
<rect x="15" y="11" width="1" height="1" fill="#1e1116" />
<rect x="16" y="11" width="1" height="1" fill="#322125" />
<rect x="17" y="11" width="1" height="1" fill="#332127" fill-opacity="0.996" />
<rect x="18" y="11" width="1" height="1" fill="#322126" />
<rect x="19" y="11" width="1" height="1" fill="#1e1216" />
<rect x="20" y="11" width="1" height="1" fill="#834334" />
<rect x="21" y="11" width="1" height="1" fill="#ed8c63" fill-opacity="0.996" />
<rect x="22" y="11" width="1" height="1" fill="#ef8e63" />
<rect x="23" y="11" width="1" height="1" fill="#f38d62" />
<rect x="24" y="11" width="1" height="1" fill="#f38e61" />
<rect x="25" y="11" width="1" height="1" fill="#f18f63" />
<rect x="26" y="11" width="1" height="1" fill="#ad6347" />
<rect x="27" y="11" width="1" height="1" fill="#f38d61" />
<rect x="28" y="11" width="1" height="1" fill="#f49064" />
<rect x="29" y="11" width="1" height="1" fill="#1f1116" />
<rect x="15" y="12" width="1" height="1" fill="#201216" />
<rect x="16" y="12" width="1" height="1" fill="#221619" />
<rect x="17" y="12" width="1" height="1" fill="#24171b" />
<rect x="18" y="12" width="1" height="1" fill="#24141b" />
<rect x="19" y="12" width="1" height="1" fill="#1f1114" />
<rect x="20" y="12" width="1" height="1" fill="#844134" />
<rect x="21" y="12" width="1" height="1" fill="#000002" />
<rect x="22" y="12" width="1" height="1" fill="#020006" />
<rect x="23" y="12" width="1" height="1" fill="#1f1114" />
<rect x="24" y="12" width="1" height="1" fill="#1f1114" />
<rect x="25" y="12" width="1" height="1" fill="#010005" />
<rect x="26" y="12" width="1" height="1" fill="#ae6347" fill-opacity="0.996" />
<rect x="27" y="12" width="1" height="1" fill="#211217" />
<rect x="28" y="12" width="1" height="1" fill="#000003" />
<rect x="29" y="12" width="1" height="1" fill="#1f1116" />
<rect x="15" y="13" width="1" height="1" fill="#1e1116" />
<rect x="16" y="13" width="1" height="1" fill="#ed9365" />
<rect x="17" y="13" width="1" height="1" fill="#f3976a" />
<rect x="18" y="13" width="1" height="1" fill="#1f1216" />
<rect x="19" y="13" width="1" height="1" fill="#1f1315" />
<rect x="20" y="13" width="1" height="1" fill="#864432" />
<rect x="21" y="13" width="1" height="1" fill="#c67553" />
<rect x="22" y="13" width="1" height="1" fill="#ca7755" />
<rect x="23" y="13" width="1" height="1" fill="#1e1215" />
<rect x="24" y="13" width="1" height="1" fill="#1f1016" />
<rect x="25" y="13" width="1" height="1" fill="#ce7856" />
<rect x="26" y="13" width="1" height="1" fill="#ac6448" />
<rect x="27" y="13" width="1" height="1" fill="#201015" />
<rect x="28" y="13" width="1" height="1" fill="#cf7a56" />
<rect x="29" y="13" width="1" height="1" fill="#201116" />
<rect x="15" y="14" width="1" height="1" fill="#1e1115" />
<rect x="16" y="14" width="1" height="1" fill="#ac6447" fill-opacity="0.996" />
<rect x="17" y="14" width="1" height="1" fill="#894435" fill-opacity="0.996" />
<rect x="18" y="14" width="1" height="1" fill="#1f1217" />
<rect x="19" y="14" width="1" height="1" fill="#1f1018" />
<rect x="20" y="14" width="1" height="1" fill="#854333" />
<rect x="21" y="14" width="1" height="1" fill="#ad6348" />
<rect x="22" y="14" width="1" height="1" fill="#ae6448" />
<rect x="23" y="14" width="1" height="1" fill="#ad6547" />
<rect x="24" y="14" width="1" height="1" fill="#ae6348" fill-opacity="0.996" />
<rect x="25" y="14" width="1" height="1" fill="#ae6347" />
<rect x="26" y="14" width="1" height="1" fill="#874134" fill-opacity="0.996" />
<rect x="27" y="14" width="1" height="1" fill="#b2664a" fill-opacity="0.996" />
<rect x="28" y="14" width="1" height="1" fill="#ae6548" />
<rect x="29" y="14" width="1" height="1" fill="#1f1217" />
<rect x="15" y="15" width="1" height="1" fill="#0d070c" fill-opacity="0.984" />
<rect x="16" y="15" width="1" height="1" fill="#020006" />
<rect x="17" y="15" width="1" height="1" fill="#854433" />
<rect x="18" y="15" width="1" height="1" fill="#1e1317" />
<rect x="19" y="15" width="1" height="1" fill="#201316" />
<rect x="20" y="15" width="1" height="1" fill="#844132" />
<rect x="21" y="15" width="1" height="1" fill="#74362c" />
<rect x="22" y="15" width="1" height="1" fill="#ac6346" />
<rect x="23" y="15" width="1" height="1" fill="#ae6447" />
<rect x="24" y="15" width="1" height="1" fill="#ab6346" fill-opacity="0.996" />
<rect x="25" y="15" width="1" height="1" fill="#5f2823" />
<rect x="26" y="15" width="1" height="1" fill="#844232" />
<rect x="27" y="15" width="1" height="1" fill="#481b1b" />
<rect x="28" y="15" width="1" height="1" fill="#a25b44" />
<rect x="29" y="15" width="1" height="1" fill="#1f1115" />
<rect x="16" y="16" width="1" height="1" fill="#1f1317" />
<rect x="17" y="16" width="1" height="1" fill="#25151b" />
<rect x="18" y="16" width="1" height="1" fill="#7b4234" />
<rect x="19" y="16" width="1" height="1" fill="#1f1115" fill-opacity="0.996" />
<rect x="20" y="16" width="1" height="1" fill="#261619" />
<rect x="21" y="16" width="1" height="1" fill="#844335" />
<rect x="22" y="16" width="1" height="1" fill="#ad6346" fill-opacity="0.996" />
<rect x="23" y="16" width="1" height="1" fill="#ab6347" />
<rect x="24" y="16" width="1" height="1" fill="#2b191b" />
<rect x="25" y="16" width="1" height="1" fill="#251618" />
<rect x="26" y="16" width="1" height="1" fill="#26181b" />
<rect x="27" y="16" width="1" height="1" fill="#281519" />
<rect x="28" y="16" width="1" height="1" fill="#2a1a1d" />
<rect x="29" y="16" width="1" height="1" fill="#211115" />
<rect x="15" y="17" width="1" height="1" fill="#221318" fill-opacity="0.996" />
<rect x="16" y="17" width="1" height="1" fill="#322226" />
<rect x="17" y="17" width="1" height="1" fill="#312025" fill-opacity="0.996" />
<rect x="18" y="17" width="1" height="1" fill="#854236" />
<rect x="19" y="17" width="1" height="1" fill="#1f1216" fill-opacity="0.996" />
<rect x="20" y="17" width="1" height="1" fill="#1f1015" />
<rect x="21" y="17" width="1" height="1" fill="#864336" />
<rect x="22" y="17" width="1" height="1" fill="#ab6347" />
<rect x="23" y="17" width="1" height="1" fill="#1e1318" fill-opacity="0.996" />
<rect x="24" y="17" width="1" height="1" fill="#1e1216" />
<rect x="25" y="17" width="1" height="1" fill="#211317" />
<rect x="26" y="17" width="1" height="1" fill="#321f25" />
<rect x="27" y="17" width="1" height="1" fill="#312024" />
<rect x="28" y="17" width="1" height="1" fill="#201116" />
<rect x="29" y="17" width="1" height="1" fill="#201217" />
<rect x="14" y="18" width="1" height="1" fill="#201216" />
<rect x="15" y="18" width="1" height="1" fill="#332027" />
<rect x="16" y="18" width="1" height="1" fill="#322127" />
<rect x="17" y="18" width="1" height="1" fill="#312025" />
<rect x="18" y="18" width="1" height="1" fill="#1d1117" />
<rect x="19" y="18" width="1" height="1" fill="#5d2c26" />
<rect x="20" y="18" width="1" height="1" fill="#201014" />
<rect x="21" y="18" width="1" height="1" fill="#1e1116" />
<rect x="22" y="18" width="1" height="1" fill="#201116" />
<rect x="23" y="18" width="1" height="1" fill="#1f1115" />
<rect x="24" y="18" width="1" height="1" fill="#894336" fill-opacity="0.996" />
<rect x="25" y="18" width="1" height="1" fill="#854534" />
<rect x="26" y="18" width="1" height="1" fill="#884335" />
<rect x="27" y="18" width="1" height="1" fill="#854233" />
<rect x="28" y="18" width="1" height="1" fill="#1e1216" />
<rect x="29" y="18" width="1" height="1" fill="#1e1215" />
<rect x="14" y="19" width="1" height="1" fill="#1f1116" />
<rect x="15" y="19" width="1" height="1" fill="#1d0f16" />
<rect x="16" y="19" width="1" height="1" fill="#1c1015" />
<rect x="17" y="19" width="1" height="1" fill="#311f27" />
<rect x="18" y="19" width="1" height="1" fill="#302026" />
<rect x="19" y="19" width="1" height="1" fill="#1c1115" fill-opacity="0.996" />
<rect x="20" y="19" width="1" height="1" fill="#542621" />
<rect x="21" y="19" width="1" height="1" fill="#1e1116" />
<rect x="22" y="19" width="1" height="1" fill="#1e1117" />
<rect x="23" y="19" width="1" height="1" fill="#1f1116" />
<rect x="24" y="19" width="1" height="1" fill="#854336" />
<rect x="25" y="19" width="1" height="1" fill="#341b1b" />
<rect x="26" y="19" width="1" height="1" fill="#1f1116" />
<rect x="27" y="19" width="1" height="1" fill="#1f1117" />
<rect x="28" y="19" width="1" height="1" fill="#1e1215" />
<rect x="29" y="19" width="1" height="1" fill="#311f26" />
<rect x="30" y="19" width="1" height="1" fill="#1f1115" fill-opacity="0.988" />
<rect x="13" y="20" width="1" height="1" fill="#1e1117" />
<rect x="14" y="20" width="1" height="1" fill="#302025" />
<rect x="15" y="20" width="1" height="1" fill="#322026" />
<rect x="16" y="20" width="1" height="1" fill="#332427" />
<rect x="17" y="20" width="1" height="1" fill="#1c1017" />
<rect x="18" y="20" width="1" height="1" fill="#312025" />
<rect x="19" y="20" width="1" height="1" fill="#302025" />
<rect x="20" y="20" width="1" height="1" fill="#1f1216" />
<rect x="21" y="20" width="1" height="1" fill="#562823" />
<rect x="22" y="20" width="1" height="1" fill="#1e1017" />
<rect x="23" y="20" width="1" height="1" fill="#1f1016" />
<rect x="24" y="20" width="1" height="1" fill="#1d1216" />
<rect x="25" y="20" width="1" height="1" fill="#1f1215" />
<rect x="26" y="20" width="1" height="1" fill="#200f14" />
<rect x="27" y="20" width="1" height="1" fill="#1f1117" />
<rect x="28" y="20" width="1" height="1" fill="#301e25" />
<rect x="29" y="20" width="1" height="1" fill="#312027" />
<rect x="30" y="20" width="1" height="1" fill="#1e1117" />
<rect x="12" y="21" width="1" height="1" fill="#1e1216" />
<rect x="13" y="21" width="1" height="1" fill="#312125" />
<rect x="14" y="21" width="1" height="1" fill="#312027" />
<rect x="15" y="21" width="1" height="1" fill="#3c2c32" />
<rect x="16" y="21" width="1" height="1" fill="#3b2d32" />
<rect x="17" y="21" width="1" height="1" fill="#3c2a31" />
<rect x="18" y="21" width="1" height="1" fill="#1e1415" />
<rect x="19" y="21" width="1" height="1" fill="#1e1117" fill-opacity="0.992" />
<rect x="20" y="21" width="1" height="1" fill="#301e24" />
<rect x="21" y="21" width="1" height="1" fill="#1f1216" />
<rect x="22" y="21" width="1" height="1" fill="#562823" />
<rect x="23" y="21" width="1" height="1" fill="#1f1214" />
<rect x="24" y="21" width="1" height="1" fill="#201115" />
<rect x="25" y="21" width="1" height="1" fill="#1e1116" />
<rect x="26" y="21" width="1" height="1" fill="#1f1316" />
<rect x="27" y="21" width="1" height="1" fill="#1f1217" fill-opacity="0.996" />
<rect x="28" y="21" width="1" height="1" fill="#311e25" />
<rect x="29" y="21" width="1" height="1" fill="#201216" />
<rect x="30" y="21" width="1" height="1" fill="#3e2830" />
<rect x="31" y="21" width="1" height="1" fill="#26151c" fill-opacity="0.980" />
<rect x="12" y="22" width="1" height="1" fill="#1d1017" />
<rect x="13" y="22" width="1" height="1" fill="#302028" />
<rect x="14" y="22" width="1" height="1" fill="#3d2b32" />
<rect x="15" y="22" width="1" height="1" fill="#3c2b33" />
<rect x="16" y="22" width="1" height="1" fill="#3e2d32" />
<rect x="17" y="22" width="1" height="1" fill="#3e2b32" />
<rect x="18" y="22" width="1" height="1" fill="#3e2c32" />
<rect x="19" y="22" width="1" height="1" fill="#3e2b31" fill-opacity="0.996" />
<rect x="20" y="22" width="1" height="1" fill="#1e1117" />
<rect x="21" y="22" width="1" height="1" fill="#2e1b22" />
<rect x="22" y="22" width="1" height="1" fill="#1e1316" />
<rect x="23" y="22" width="1" height="1" fill="#582822" />
<rect x="24" y="22" width="1" height="1" fill="#5a2a23" />
<rect x="25" y="22" width="1" height="1" fill="#201117" />
<rect x="26" y="22" width="1" height="1" fill="#301e26" />
<rect x="27" y="22" width="1" height="1" fill="#312026" />
<rect x="28" y="22" width="1" height="1" fill="#1e1117" />
<rect x="29" y="22" width="1" height="1" fill="#3c2b31" />
<rect x="30" y="22" width="1" height="1" fill="#3d2c32" />
<rect x="31" y="22" width="1" height="1" fill="#3d2b32" />
<rect x="32" y="22" width="1" height="1" fill="#231319" fill-opacity="0.996" />
<rect x="11" y="23" width="1" height="1" fill="#1e1116" />
<rect x="12" y="23" width="1" height="1" fill="#312127" />
<rect x="13" y="23" width="1" height="1" fill="#312127" />
<rect x="14" y="23" width="1" height="1" fill="#3c2b33" />
<rect x="15" y="23" width="1" height="1" fill="#3e2d33" />
<rect x="16" y="23" width="1" height="1" fill="#1d1217" />
<rect x="17" y="23" width="1" height="1" fill="#3b292f" />
<rect x="18" y="23" width="1" height="1" fill="#3f2d31" fill-opacity="0.996" />
<rect x="19" y="23" width="1" height="1" fill="#3d2e34" />
<rect x="20" y="23" width="1" height="1" fill="#3e2d33" />
<rect x="21" y="23" width="1" height="1" fill="#3f2b33" />
<rect x="22" y="23" width="1" height="1" fill="#312127" />
<rect x="23" y="23" width="1" height="1" fill="#1e1116" />
<rect x="24" y="23" width="1" height="1" fill="#1d1116" />
<rect x="25" y="23" width="1" height="1" fill="#312027" />
<rect x="26" y="23" width="1" height="1" fill="#201218" />
<rect x="27" y="23" width="1" height="1" fill="#3e2d33" />
<rect x="28" y="23" width="1" height="1" fill="#3d2e33" />
<rect x="29" y="23" width="1" height="1" fill="#3f2c32" />
<rect x="30" y="23" width="1" height="1" fill="#3d2b31" />
<rect x="31" y="23" width="1" height="1" fill="#3c2931" />
<rect x="32" y="23" width="1" height="1" fill="#201118" fill-opacity="0.996" />
<rect x="11" y="24" width="1" height="1" fill="#201217" />
<rect x="12" y="24" width="1" height="1" fill="#312027" />
<rect x="13" y="24" width="1" height="1" fill="#3f2c31" />
<rect x="14" y="24" width="1" height="1" fill="#3f2c33" />
<rect x="15" y="24" width="1" height="1" fill="#3e2c32" />
<rect x="16" y="24" width="1" height="1" fill="#1d1016" />
<rect x="17" y="24" width="1" height="1" fill="#302024" />
<rect x="18" y="24" width="1" height="1" fill="#3f2d31" />
<rect x="19" y="24" width="1" height="1" fill="#3f2e34" />
<rect x="20" y="24" width="1" height="1" fill="#402e35" fill-opacity="0.996" />
<rect x="21" y="24" width="1" height="1" fill="#3f2b34" />
<rect x="22" y="24" width="1" height="1" fill="#402c32" />
<rect x="23" y="24" width="1" height="1" fill="#3e2e33" />
<rect x="24" y="24" width="1" height="1" fill="#412d34" />
<rect x="25" y="24" width="1" height="1" fill="#402d34" />
<rect x="26" y="24" width="1" height="1" fill="#402d32" />
<rect x="27" y="24" width="1" height="1" fill="#3f2c33" />
<rect x="28" y="24" width="1" height="1" fill="#3f2e33" />
<rect x="29" y="24" width="1" height="1" fill="#3e2d33" />
<rect x="30" y="24" width="1" height="1" fill="#1e1115" />
<rect x="31" y="24" width="1" height="1" fill="#3d2a31" />
<rect x="32" y="24" width="1" height="1" fill="#201118" fill-opacity="0.996" />
<rect x="11" y="25" width="1" height="1" fill="#1f1116" />
<rect x="12" y="25" width="1" height="1" fill="#301e26" />
<rect x="13" y="25" width="1" height="1" fill="#3d2b31" />
<rect x="14" y="25" width="1" height="1" fill="#3f2c33" />
<rect x="15" y="25" width="1" height="1" fill="#3e2c32" />
<rect x="16" y="25" width="1" height="1" fill="#1d1016" />
<rect x="17" y="25" width="1" height="1" fill="#311f24" />
<rect x="18" y="25" width="1" height="1" fill="#3d2b34" />
<rect x="19" y="25" width="1" height="1" fill="#3f2d33" fill-opacity="0.992" />
<rect x="20" y="25" width="1" height="1" fill="#3f2e32" />
<rect x="21" y="25" width="1" height="1" fill="#3e2d34" />
<rect x="22" y="25" width="1" height="1" fill="#3f2e33" fill-opacity="0.996" />
<rect x="23" y="25" width="1" height="1" fill="#402b34" />
<rect x="24" y="25" width="1" height="1" fill="#3e2c33" />
<rect x="25" y="25" width="1" height="1" fill="#402c32" />
<rect x="26" y="25" width="1" height="1" fill="#3f2d32" />
<rect x="27" y="25" width="1" height="1" fill="#3f2b34" />
<rect x="28" y="25" width="1" height="1" fill="#3e2d35" />
<rect x="29" y="25" width="1" height="1" fill="#3c2b31" />
<rect x="30" y="25" width="1" height="1" fill="#1f1018" />
<rect x="31" y="25" width="1" height="1" fill="#3d2b31" />
<rect x="32" y="25" width="1" height="1" fill="#3b292f" />
<rect x="33" y="25" width="1" height="1" fill="#22141a" fill-opacity="0.973" />
<rect x="10" y="26" width="1" height="1" fill="#1e1018" />
<rect x="11" y="26" width="1" height="1" fill="#312025" />
<rect x="12" y="26" width="1" height="1" fill="#3d2b31" />
<rect x="13" y="26" width="1" height="1" fill="#3e2b32" />
<rect x="14" y="26" width="1" height="1" fill="#3c2d32" />
<rect x="15" y="26" width="1" height="1" fill="#1e1216" />
<rect x="16" y="26" width="1" height="1" fill="#1f1117" fill-opacity="0.996" />
<rect x="17" y="26" width="1" height="1" fill="#301e25" />
<rect x="18" y="26" width="1" height="1" fill="#3e2c33" />
<rect x="19" y="26" width="1" height="1" fill="#3f2f33" />
<rect x="20" y="26" width="1" height="1" fill="#3f2d32" />
<rect x="21" y="26" width="1" height="1" fill="#3f2c33" />
<rect x="22" y="26" width="1" height="1" fill="#3f2d32" />
<rect x="23" y="26" width="1" height="1" fill="#402c34" />
<rect x="24" y="26" width="1" height="1" fill="#3f2d35" />
<rect x="25" y="26" width="1" height="1" fill="#3f2e34" />
<rect x="26" y="26" width="1" height="1" fill="#412d34" />
<rect x="27" y="26" width="1" height="1" fill="#3e2d35" />
<rect x="28" y="26" width="1" height="1" fill="#7189a3" />
<rect x="29" y="26" width="1" height="1" fill="#7287a1" fill-opacity="0.996" />
<rect x="30" y="26" width="1" height="1" fill="#201115" />
<rect x="31" y="26" width="1" height="1" fill="#311f26" />
<rect x="32" y="26" width="1" height="1" fill="#3c2a30" fill-opacity="0.996" />
<rect x="33" y="26" width="1" height="1" fill="#201219" fill-opacity="0.984" />
<rect x="10" y="27" width="1" height="1" fill="#1f1217" />
<rect x="11" y="27" width="1" height="1" fill="#312124" />
<rect x="12" y="27" width="1" height="1" fill="#3e2a31" />
<rect x="13" y="27" width="1" height="1" fill="#1f1116" />
<rect x="14" y="27" width="1" height="1" fill="#201014" />
<rect x="15" y="27" width="1" height="1" fill="#1d1118" />
<rect x="16" y="27" width="1" height="1" fill="#1e1215" />
<rect x="17" y="27" width="1" height="1" fill="#302024" />
<rect x="18" y="27" width="1" height="1" fill="#3f2d32" fill-opacity="0.996" />
<rect x="19" y="27" width="1" height="1" fill="#110508" fill-opacity="0.996" />
<rect x="20" y="27" width="1" height="1" fill="#000000" fill-opacity="0.996" />
<rect x="21" y="27" width="1" height="1" fill="#000000" />
<rect x="22" y="27" width="1" height="1" fill="#dfccb2" fill-opacity="0.996" />
<rect x="23" y="27" width="1" height="1" fill="#35232a" fill-opacity="0.996" />
<rect x="24" y="27" width="1" height="1" fill="#010001" />
<rect x="25" y="27" width="1" height="1" fill="#3f2e34" fill-opacity="0.996" />
<rect x="26" y="27" width="1" height="1" fill="#0f0509" />
<rect x="27" y="27" width="1" height="1" fill="#000100" />
<rect x="28" y="27" width="1" height="1" fill="#748aa4" />
<rect x="29" y="27" width="1" height="1" fill="#738aa2" />
<rect x="30" y="27" width="1" height="1" fill="#1f1116" />
<rect x="31" y="27" width="1" height="1" fill="#302025" fill-opacity="0.996" />
<rect x="32" y="27" width="1" height="1" fill="#3c2930" />
<rect x="33" y="27" width="1" height="1" fill="#211317" fill-opacity="0.984" />
<rect x="10" y="28" width="1" height="1" fill="#1e1115" />
<rect x="11" y="28" width="1" height="1" fill="#2f1f24" />
<rect x="12" y="28" width="1" height="1" fill="#3c2a30" />
<rect x="13" y="28" width="1" height="1" fill="#3c2930" />
<rect x="14" y="28" width="1" height="1" fill="#3d2b30" />
<rect x="15" y="28" width="1" height="1" fill="#3c2b2f" />
<rect x="16" y="28" width="1" height="1" fill="#1e1218" />
<rect x="17" y="28" width="1" height="1" fill="#2f1e24" />
<rect x="18" y="28" width="1" height="1" fill="#3e2b32" />
<rect x="19" y="28" width="1" height="1" fill="#fdfbf6" />
<rect x="20" y="28" width="1" height="1" fill="#3f2b33" />
<rect x="21" y="28" width="1" height="1" fill="#d4bfa4" />
<rect x="22" y="28" width="1" height="1" fill="#deccb1" fill-opacity="0.992" />
<rect x="23" y="28" width="1" height="1" fill="#deceb5" />
<rect x="24" y="28" width="1" height="1" fill="#3f2c32" />
<rect x="25" y="28" width="1" height="1" fill="#dbc8ae" />
<rect x="26" y="28" width="1" height="1" fill="#dfceb5" />
<rect x="27" y="28" width="1" height="1" fill="#030002" />
<rect x="28" y="28" width="1" height="1" fill="#758ba5" />
<rect x="29" y="28" width="1" height="1" fill="#7388a1" />
<rect x="30" y="28" width="1" height="1" fill="#1e1115" />
<rect x="31" y="28" width="1" height="1" fill="#1e1116" />
<rect x="32" y="28" width="1" height="1" fill="#1f1216" />
<rect x="33" y="28" width="1" height="1" fill="#1f1217" fill-opacity="0.988" />
<rect x="10" y="29" width="1" height="1" fill="#1e1217" />
<rect x="11" y="29" width="1" height="1" fill="#2e1f25" />
<rect x="12" y="29" width="1" height="1" fill="#2f2026" />
<rect x="13" y="29" width="1" height="1" fill="#311f25" fill-opacity="0.996" />
<rect x="14" y="29" width="1" height="1" fill="#3b2b30" />
<rect x="15" y="29" width="1" height="1" fill="#302027" />
<rect x="16" y="29" width="1" height="1" fill="#302026" />
<rect x="17" y="29" width="1" height="1" fill="#1e1117" />
<rect x="18" y="29" width="1" height="1" fill="#3e2d33" />
<rect x="19" y="29" width="1" height="1" fill="#4b3941" />
<rect x="20" y="29" width="1" height="1" fill="#3f2c34" />
<rect x="21" y="29" width="1" height="1" fill="#554346" fill-opacity="0.996" />
<rect x="22" y="29" width="1" height="1" fill="#544248" fill-opacity="0.996" />
<rect x="23" y="29" width="1" height="1" fill="#412e36" />
<rect x="24" y="29" width="1" height="1" fill="#544145" />
<rect x="25" y="29" width="1" height="1" fill="#402d34" />
<rect x="26" y="29" width="1" height="1" fill="#49363c" />
<rect x="27" y="29" width="1" height="1" fill="#513e44" />
<rect x="28" y="29" width="1" height="1" fill="#46333d" />
<rect x="29" y="29" width="1" height="1" fill="#44353d" />
<rect x="30" y="29" width="1" height="1" fill="#1f1115" />
<rect x="31" y="29" width="1" height="1" fill="#3c2c32" />
<rect x="32" y="29" width="1" height="1" fill="#3a2b2f" />
<rect x="33" y="29" width="1" height="1" fill="#221419" fill-opacity="0.984" />
<rect x="11" y="30" width="1" height="1" fill="#1e1116" />
<rect x="12" y="30" width="1" height="1" fill="#311f26" />
<rect x="13" y="30" width="1" height="1" fill="#3b2a2f" />
<rect x="14" y="30" width="1" height="1" fill="#201217" />
<rect x="15" y="30" width="1" height="1" fill="#201215" />
<rect x="16" y="30" width="1" height="1" fill="#1e1017" />
<rect x="17" y="30" width="1" height="1" fill="#1f1217" />
<rect x="18" y="30" width="1" height="1" fill="#332029" />
<rect x="19" y="30" width="1" height="1" fill="#3e2a33" />
<rect x="20" y="30" width="1" height="1" fill="#3e2e33" />
<rect x="21" y="30" width="1" height="1" fill="#3f2d34" />
<rect x="22" y="30" width="1" height="1" fill="#3f2c33" />
<rect x="23" y="30" width="1" height="1" fill="#402d33" />
<rect x="24" y="30" width="1" height="1" fill="#3e2d34" />
<rect x="25" y="30" width="1" height="1" fill="#3f2d33" />
<rect x="26" y="30" width="1" height="1" fill="#3e2d34" />
<rect x="27" y="30" width="1" height="1" fill="#402e33" />
<rect x="28" y="30" width="1" height="1" fill="#3f2c32" />
<rect x="29" y="30" width="1" height="1" fill="#3c2b31" />
<rect x="30" y="30" width="1" height="1" fill="#1e1116" />
<rect x="31" y="30" width="1" height="1" fill="#3e2a31" />
<rect x="32" y="30" width="1" height="1" fill="#3b292e" />
<rect x="33" y="30" width="1" height="1" fill="#221518" fill-opacity="0.996" />
<rect x="11" y="31" width="1" height="1" fill="#211218" fill-opacity="0.988" />
<rect x="12" y="31" width="1" height="1" fill="#322125" />
<rect x="13" y="31" width="1" height="1" fill="#322025" />
<rect x="14" y="31" width="1" height="1" fill="#1f1016" />
<rect x="15" y="31" width="1" height="1" fill="#844234" />
<rect x="16" y="31" width="1" height="1" fill="#834236" />
<rect x="17" y="31" width="1" height="1" fill="#201016" />
<rect x="18" y="31" width="1" height="1" fill="#1e1215" />
<rect x="19" y="31" width="1" height="1" fill="#301e26" />
<rect x="20" y="31" width="1" height="1" fill="#3e2b32" />
<rect x="21" y="31" width="1" height="1" fill="#3d2c33" />
<rect x="22" y="31" width="1" height="1" fill="#3e2d34" />
<rect x="23" y="31" width="1" height="1" fill="#3e2c33" />
<rect x="24" y="31" width="1" height="1" fill="#3f2e31" />
<rect x="25" y="31" width="1" height="1" fill="#3e2c34" />
<rect x="26" y="31" width="1" height="1" fill="#402c33" />
<rect x="27" y="31" width="1" height="1" fill="#3d2e32" />
<rect x="28" y="31" width="1" height="1" fill="#3e2e34" />
<rect x="29" y="31" width="1" height="1" fill="#201115" />
<rect x="30" y="31" width="1" height="1" fill="#1e1115" />
<rect x="31" y="31" width="1" height="1" fill="#221214" />
<rect x="32" y="31" width="1" height="1" fill="#1f1118" fill-opacity="0.996" />
<rect x="12" y="32" width="1" height="1" fill="#1e1117" />
<rect x="13" y="32" width="1" height="1" fill="#1e1317" />
<rect x="14" y="32" width="1" height="1" fill="#5a2b25" fill-opacity="0.996" />
<rect x="15" y="32" width="1" height="1" fill="#834134" />
<rect x="16" y="32" width="1" height="1" fill="#874334" />
<rect x="17" y="32" width="1" height="1" fill="#854234" />
<rect x="18" y="32" width="1" height="1" fill="#1e1116" />
<rect x="19" y="32" width="1" height="1" fill="#2f1f26" />
<rect x="20" y="32" width="1" height="1" fill="#3c2c31" />
<rect x="21" y="32" width="1" height="1" fill="#3f2c33" />
<rect x="22" y="32" width="1" height="1" fill="#3f2c33" />
<rect x="23" y="32" width="1" height="1" fill="#3e2e33" />
<rect x="24" y="32" width="1" height="1" fill="#3c2c32" />
<rect x="25" y="32" width="1" height="1" fill="#3e2d33" />
<rect x="26" y="32" width="1" height="1" fill="#3e2b33" />
<rect x="27" y="32" width="1" height="1" fill="#3d2c31" />
<rect x="28" y="32" width="1" height="1" fill="#3c2c31" />
<rect x="29" y="32" width="1" height="1" fill="#1e1216" />
<rect x="30" y="32" width="1" height="1" fill="#1e1116" fill-opacity="0.996" />
<rect x="31" y="32" width="1" height="1" fill="#592922" />
<rect x="32" y="32" width="1" height="1" fill="#201117" fill-opacity="0.992" />
<rect x="13" y="33" width="1" height="1" fill="#201318" fill-opacity="0.996" />
<rect x="14" y="33" width="1" height="1" fill="#1f1318" />
<rect x="15" y="33" width="1" height="1" fill="#612d26" />
<rect x="16" y="33" width="1" height="1" fill="#854335" />
<rect x="17" y="33" width="1" height="1" fill="#1f1217" />
<rect x="18" y="33" width="1" height="1" fill="#1c1116" />
<rect x="19" y="33" width="1" height="1" fill="#2f1e25" />
<rect x="20" y="33" width="1" height="1" fill="#301f25" />
<rect x="21" y="33" width="1" height="1" fill="#3c2c32" />
<rect x="22" y="33" width="1" height="1" fill="#3c2e34" />
<rect x="23" y="33" width="1" height="1" fill="#3d2e34" />
<rect x="24" y="33" width="1" height="1" fill="#3c2c33" />
<rect x="25" y="33" width="1" height="1" fill="#3e2d33" />
<rect x="26" y="33" width="1" height="1" fill="#3f2c33" />
<rect x="27" y="33" width="1" height="1" fill="#3d2b32" />
<rect x="28" y="33" width="1" height="1" fill="#312026" />
<rect x="29" y="33" width="1" height="1" fill="#1f1218" />
<rect x="30" y="33" width="1" height="1" fill="#1e1416" />
<rect x="31" y="33" width="1" height="1" fill="#7a3f30" />
<rect x="32" y="33" width="1" height="1" fill="#211217" fill-opacity="0.996" />
<rect x="14" y="34" width="1" height="1" fill="#1b0e13" fill-opacity="0.961" />
<rect x="15" y="34" width="1" height="1" fill="#1f1316" />
<rect x="16" y="34" width="1" height="1" fill="#1a0e15" />
<rect x="17" y="34" width="1" height="1" fill="#1a0e12" />
<rect x="18" y="34" width="1" height="1" fill="#2d1d24" />
<rect x="19" y="34" width="1" height="1" fill="#2d1f24" />
<rect x="20" y="34" width="1" height="1" fill="#2d1d23" />
<rect x="21" y="34" width="1" height="1" fill="#2d1c23" />
<rect x="22" y="34" width="1" height="1" fill="#2c1d24" />
<rect x="23" y="34" width="1" height="1" fill="#2d1a21" />
<rect x="24" y="34" width="1" height="1" fill="#2d1d22" />
<rect x="25" y="34" width="1" height="1" fill="#2d1e24" />
<rect x="26" y="34" width="1" height="1" fill="#2c1c24" fill-opacity="0.996" />
<rect x="27" y="34" width="1" height="1" fill="#2c1d23" />
<rect x="28" y="34" width="1" height="1" fill="#2f1d25" />
<rect x="29" y="34" width="1" height="1" fill="#201217" fill-opacity="0.996" />
<rect x="30" y="34" width="1" height="1" fill="#7d3e31" />
<rect x="31" y="34" width="1" height="1" fill="#512721" fill-opacity="0.980" />
<rect x="32" y="34" width="1" height="1" fill="#1b0d13" fill-opacity="0.969" />
<rect x="15" y="35" width="1" height="1" fill="#1f1117" />
<rect x="16" y="35" width="1" height="1" fill="#0e0101" />
<rect x="17" y="35" width="1" height="1" fill="#120000" />
<rect x="18" y="35" width="1" height="1" fill="#130000" />
<rect x="19" y="35" width="1" height="1" fill="#130000" />
<rect x="20" y="35" width="1" height="1" fill="#120000" />
<rect x="21" y="35" width="1" height="1" fill="#120000" />
<rect x="22" y="35" width="1" height="1" fill="#110000" />
<rect x="23" y="35" width="1" height="1" fill="#120000" />
<rect x="24" y="35" width="1" height="1" fill="#110000" />
<rect x="25" y="35" width="1" height="1" fill="#100001" />
<rect x="26" y="35" width="1" height="1" fill="#120000" />
<rect x="27" y="35" width="1" height="1" fill="#120000" />
<rect x="28" y="35" width="1" height="1" fill="#090000" />
<rect x="29" y="35" width="1" height="1" fill="#211217" />
<rect x="30" y="35" width="1" height="1" fill="#030101" fill-opacity="0.988" />
<rect x="31" y="35" width="1" height="1" fill="#080205" />
<rect x="15" y="36" width="1" height="1" fill="#201117" />
<rect x="16" y="36" width="1" height="1" fill="#4d5d73" />
<rect x="17" y="36" width="1" height="1" fill="#364053" />
<rect x="18" y="36" width="1" height="1" fill="#3a475c" />
<rect x="19" y="36" width="1" height="1" fill="#3c495d" />
<rect x="20" y="36" width="1" height="1" fill="#39465c" />
<rect x="21" y="36" width="1" height="1" fill="#3b4659" fill-opacity="0.996" />
<rect x="22" y="36" width="1" height="1" fill="#4b5a6e" fill-opacity="0.996" />
<rect x="23" y="36" width="1" height="1" fill="#4b586c" />
<rect x="24" y="36" width="1" height="1" fill="#4e5d71" fill-opacity="0.992" />
<rect x="25" y="36" width="1" height="1" fill="#374358" />
<rect x="26" y="36" width="1" height="1" fill="#3a495c" />
<rect x="27" y="36" width="1" height="1" fill="#3b475c" />
<rect x="28" y="36" width="1" height="1" fill="#394358" fill-opacity="0.996" />
<rect x="29" y="36" width="1" height="1" fill="#1e1317" />
<rect x="15" y="37" width="1" height="1" fill="#1c1216" />
<rect x="16" y="37" width="1" height="1" fill="#4e5d73" />
<rect x="17" y="37" width="1" height="1" fill="#70839d" />
<rect x="18" y="37" width="1" height="1" fill="#6e849c" fill-opacity="0.996" />
<rect x="19" y="37" width="1" height="1" fill="#71849d" fill-opacity="0.996" />
<rect x="20" y="37" width="1" height="1" fill="#71849d" />
<rect x="21" y="37" width="1" height="1" fill="#221318" />
<rect x="23" y="37" width="1" height="1" fill="#1e1116" />
<rect x="24" y="37" width="1" height="1" fill="#4f5e72" />
<rect x="25" y="37" width="1" height="1" fill="#6d839e" fill-opacity="0.992" />
<rect x="26" y="37" width="1" height="1" fill="#70869e" />
<rect x="27" y="37" width="1" height="1" fill="#71859f" fill-opacity="0.996" />
<rect x="28" y="37" width="1" height="1" fill="#70859e" />
<rect x="29" y="37" width="1" height="1" fill="#1f1218" />
<rect x="15" y="38" width="1" height="1" fill="#201217" />
<rect x="16" y="38" width="1" height="1" fill="#4e5e75" />
<rect x="17" y="38" width="1" height="1" fill="#6e839e" fill-opacity="0.996" />
<rect x="18" y="38" width="1" height="1" fill="#6f859d" />
<rect x="19" y="38" width="1" height="1" fill="#71839d" />
<rect x="20" y="38" width="1" height="1" fill="#72859e" />
<rect x="21" y="38" width="1" height="1" fill="#1f1318" />
<rect x="23" y="38" width="1" height="1" fill="#1e1217" />
<rect x="24" y="38" width="1" height="1" fill="#4d5d74" />
<rect x="25" y="38" width="1" height="1" fill="#6e849d" />
<rect x="26" y="38" width="1" height="1" fill="#71859e" />
<rect x="27" y="38" width="1" height="1" fill="#72869e" fill-opacity="0.996" />
<rect x="28" y="38" width="1" height="1" fill="#70859f" fill-opacity="0.996" />
<rect x="29" y="38" width="1" height="1" fill="#201218" />
<rect x="14" y="39" width="1" height="1" fill="#070306" />
<rect x="15" y="39" width="1" height="1" fill="#55657d" fill-opacity="0.996" />
<rect x="16" y="39" width="1" height="1" fill="#4e5b72" fill-opacity="0.992" />
<rect x="17" y="39" width="1" height="1" fill="#6f839d" />
<rect x="18" y="39" width="1" height="1" fill="#70849d" />
<rect x="19" y="39" width="1" height="1" fill="#6f829c" />
<rect x="20" y="39" width="1" height="1" fill="#1f1317" />
<rect x="23" y="39" width="1" height="1" fill="#1e1417" />
<rect x="24" y="39" width="1" height="1" fill="#4e5a72" />
<rect x="25" y="39" width="1" height="1" fill="#4f5d74" />
<rect x="26" y="39" width="1" height="1" fill="#6f869c" />
<rect x="27" y="39" width="1" height="1" fill="#6f849b" />
<rect x="28" y="39" width="1" height="1" fill="#4f5d74" />
<rect x="29" y="39" width="1" height="1" fill="#201217" />
<rect x="14" y="40" width="1" height="1" fill="#1f1017" />
<rect x="15" y="40" width="1" height="1" fill="#4d5e72" />
<rect x="16" y="40" width="1" height="1" fill="#5c6d85" />
<rect x="17" y="40" width="1" height="1" fill="#5e6f88" />
<rect x="18" y="40" width="1" height="1" fill="#5d6f86" />
<rect x="19" y="40" width="1" height="1" fill="#5c6b85" />
<rect x="20" y="40" width="1" height="1" fill="#1f1314" />
<rect x="23" y="40" width="1" height="1" fill="#1f1018" />
<rect x="24" y="40" width="1" height="1" fill="#4c5c71" />
<rect x="25" y="40" width="1" height="1" fill="#4d5d74" />
<rect x="26" y="40" width="1" height="1" fill="#5d6f87" fill-opacity="0.996" />
<rect x="27" y="40" width="1" height="1" fill="#5e6f85" />
<rect x="28" y="40" width="1" height="1" fill="#5c6d84" />
<rect x="29" y="40" width="1" height="1" fill="#201317" />
<rect x="14" y="41" width="1" height="1" fill="#1e1317" />
<rect x="15" y="41" width="1" height="1" fill="#5b6982" fill-opacity="0.992" />
<rect x="16" y="41" width="1" height="1" fill="#dac5ac" />
<rect x="17" y="41" width="1" height="1" fill="#dbc6af" fill-opacity="0.992" />
<rect x="18" y="41" width="1" height="1" fill="#dac7ad" />
<rect x="19" y="41" width="1" height="1" fill="#22131a" />
<rect x="23" y="41" width="1" height="1" fill="#1d1017" />
<rect x="24" y="41" width="1" height="1" fill="#505c73" />
<rect x="25" y="41" width="1" height="1" fill="#4f5b73" />
<rect x="26" y="41" width="1" height="1" fill="#525e75" />
<rect x="27" y="41" width="1" height="1" fill="#ddcab0" fill-opacity="0.996" />
<rect x="28" y="41" width="1" height="1" fill="#dcc9af" fill-opacity="0.996" />
<rect x="29" y="41" width="1" height="1" fill="#1f1216" />
<rect x="14" y="42" width="1" height="1" fill="#201217" />
<rect x="15" y="42" width="1" height="1" fill="#c2a995" />
<rect x="16" y="42" width="1" height="1" fill="#c1a897" />
<rect x="17" y="42" width="1" height="1" fill="#dcc9b1" />
<rect x="18" y="42" width="1" height="1" fill="#dcc7b0" />
<rect x="19" y="42" width="1" height="1" fill="#1e1317" />
<rect x="23" y="42" width="1" height="1" fill="#1f1218" />
<rect x="24" y="42" width="1" height="1" fill="#c0a695" />
<rect x="25" y="42" width="1" height="1" fill="#c0a796" />
<rect x="26" y="42" width="1" height="1" fill="#c2a694" />
<rect x="27" y="42" width="1" height="1" fill="#c0a894" fill-opacity="0.992" />
<rect x="28" y="42" width="1" height="1" fill="#dcc9af" />
<rect x="29" y="42" width="1" height="1" fill="#dac6ae" fill-opacity="0.996" />
<rect x="30" y="42" width="1" height="1" fill="#201317" />
<rect x="31" y="42" width="1" height="1" fill="#1f1418" fill-opacity="0.976" />
<rect x="14" y="43" width="1" height="1" fill="#1e1016" />
<rect x="15" y="43" width="1" height="1" fill="#c1a895" />
<rect x="16" y="43" width="1" height="1" fill="#c1a794" fill-opacity="0.996" />
<rect x="17" y="43" width="1" height="1" fill="#c1a797" />
<rect x="18" y="43" width="1" height="1" fill="#c3aa97" />
<rect x="19" y="43" width="1" height="1" fill="#c2a796" />
<rect x="20" y="43" width="1" height="1" fill="#1f1016" />
<rect x="23" y="43" width="1" height="1" fill="#201116" />
<rect x="24" y="43" width="1" height="1" fill="#c2a595" />
<rect x="25" y="43" width="1" height="1" fill="#c1a494" fill-opacity="0.996" />
<rect x="26" y="43" width="1" height="1" fill="#c0a694" fill-opacity="0.996" />
<rect x="27" y="43" width="1" height="1" fill="#c2a695" fill-opacity="0.996" />
<rect x="28" y="43" width="1" height="1" fill="#c1a797" fill-opacity="0.992" />
<rect x="29" y="43" width="1" height="1" fill="#c3a696" fill-opacity="0.996" />
<rect x="30" y="43" width="1" height="1" fill="#c2a894" fill-opacity="0.996" />
<rect x="31" y="43" width="1" height="1" fill="#b19382" fill-opacity="0.996" />
<rect x="32" y="43" width="1" height="1" fill="#241619" fill-opacity="0.996" />
<rect x="14" y="44" width="1" height="1" fill="#1f1416" />
<rect x="15" y="44" width="1" height="1" fill="#1f1017" />
<rect x="16" y="44" width="1" height="1" fill="#1e1217" />
<rect x="17" y="44" width="1" height="1" fill="#1e1216" />
<rect x="18" y="44" width="1" height="1" fill="#1e1117" />
<rect x="19" y="44" width="1" height="1" fill="#1f1216" />
<rect x="20" y="44" width="1" height="1" fill="#1e1017" />
<rect x="23" y="44" width="1" height="1" fill="#1f1016" />
<rect x="24" y="44" width="1" height="1" fill="#1e1116" />
<rect x="25" y="44" width="1" height="1" fill="#201317" />
<rect x="26" y="44" width="1" height="1" fill="#1e1117" />
<rect x="27" y="44" width="1" height="1" fill="#201318" />
<rect x="28" y="44" width="1" height="1" fill="#1f1216" />
<rect x="29" y="44" width="1" height="1" fill="#1f1118" />
<rect x="30" y="44" width="1" height="1" fill="#1f1217" />
<rect x="31" y="44" width="1" height="1" fill="#1f1116" />
<rect x="32" y="44" width="1" height="1" fill="#231319" fill-opacity="0.996" />
</svg>